<svg width="35" height="35" viewBox="0 0 35 35" fill="none" xmlns="http://www.w3.org/2000/svg">
<path fill-rule="evenodd" clip-rule="evenodd" d="M35 17.5C35 7.83502 27.165 0 17.5 0C7.83502 0 0 7.83502 0 17.5C0 27.165 7.83502 35 17.5 35C27.165 35 35 27.165 35 17.5ZM17.1412 28.5905C17.1412 28.5905 17.1417 28.5907 17.5 28.0818L17.1412 28.5905ZM17.8588 28.5905C17.8588 28.5905 17.8584 28.5907 17.5 28.0818L17.8588 28.5905ZM17.8588 28.5905L17.861 28.5889L17.8667 28.5849L17.8865 28.5707C17.9035 28.5585 17.9279 28.5408 17.9593 28.5178C18.0221 28.4717 18.1126 28.4041 18.2271 28.3162C18.4559 28.1402 18.7805 27.8822 19.1689 27.5502C19.9448 26.8867 20.98 25.9236 22.0169 24.7242C24.0756 22.3427 26.2144 18.9438 26.2144 15.058C26.2144 12.7353 25.2972 10.507 23.6633 8.86344C22.0293 7.2198 19.8124 6.29573 17.5 6.29573C15.1876 6.29573 12.9707 7.2198 11.3367 8.86344C9.70282 10.507 8.78557 12.7353 8.78557 15.058C8.78557 18.9438 10.9244 22.3427 12.9831 24.7242C14.02 25.9236 15.0552 26.8867 15.8311 27.5502C16.2195 27.8822 16.5441 28.1402 16.7729 28.3162C16.8874 28.4041 16.9779 28.4717 17.0407 28.5178C17.0721 28.5408 17.0965 28.5585 17.1135 28.5707L17.1333 28.5849L17.139 28.5889L17.1412 28.5905C17.3561 28.7418 17.6439 28.7418 17.8588 28.5905ZM17.5 18.1225C19.2189 18.1225 20.6123 16.729 20.6123 15.0102C20.6123 13.2913 19.2189 11.8979 17.5 11.8979C15.7811 11.8979 14.3877 13.2913 14.3877 15.0102C14.3877 16.729 15.7811 18.1225 17.5 18.1225Z" fill="#5C72FF"/>
</svg>
