<svg width="35" height="35" viewBox="0 0 35 35" fill="none" xmlns="http://www.w3.org/2000/svg">
<path fill-rule="evenodd" clip-rule="evenodd" d="M35 17.5C35 27.165 27.165 35 17.5 35C7.83502 35 0 27.165 0 17.5C0 7.83502 7.83502 0 17.5 0C27.165 0 35 7.83502 35 17.5ZM8.77393 13.1387C8.77393 11.6929 9.94629 10.5205 11.3921 10.5205H23.6079C25.0537 10.5205 26.2261 11.6895 26.2261 13.1353V21.8647C26.2261 23.3105 25.0537 24.4829 23.6079 24.4829H11.3921C9.94629 24.4829 8.77393 23.3105 8.77393 21.8647V13.1387ZM18.1187 17.394L23.2524 12.2637H11.7476L16.8813 17.394L16.8848 17.3975C17.2266 17.7393 17.7803 17.7358 18.1187 17.394ZM23.6113 22.7363C24.0933 22.7363 24.4829 22.3467 24.4829 21.8647V13.4941L19.3525 18.6245C18.3271 19.6465 16.6729 19.6465 15.6509 18.6245L10.5205 13.4941V21.8647C10.5205 22.3467 10.9102 22.7363 11.3921 22.7363H23.6113Z" fill="#5C72FF"/>
</svg>
