<svg width="35" height="35" viewBox="0 0 35 35" fill="none" xmlns="http://www.w3.org/2000/svg">
<path d="M17.5 1.45834C13.2905 1.41556 9.23617 3.04589 6.22815 5.99102C3.22012 8.93615 1.5045 12.9551 1.45833 17.1646C1.47455 20.4913 2.5447 23.7273 4.51509 26.4077C6.48547 29.0882 9.25469 31.0752 12.425 32.0833C13.2271 32.2292 13.5187 31.7479 13.5187 31.325C13.5187 30.9021 13.5187 29.9688 13.5187 28.6563C9.05625 29.6042 8.10833 26.5563 8.10833 26.5563C7.81126 25.5994 7.17971 24.7815 6.32916 24.2521C4.87083 23.2896 6.44583 23.3042 6.44583 23.3042C6.9499 23.3716 7.43218 23.5522 7.85649 23.8326C8.2808 24.1129 8.63613 24.4857 8.89583 24.9229C9.34839 25.7077 10.091 26.2834 10.9638 26.5261C11.8365 26.7689 12.7697 26.6592 13.5625 26.2208C13.644 25.4222 14.0057 24.6783 14.5833 24.1208C11.025 23.7271 7.29166 22.3854 7.29166 16.3625C7.25984 14.7914 7.84035 13.2695 8.91041 12.1188C8.42308 10.7699 8.48062 9.28421 9.07083 7.97709C9.07083 7.97709 10.4271 7.55417 13.4458 9.58126C16.0736 8.88102 18.8389 8.88102 21.4667 9.58126C24.5292 7.55417 25.8417 7.97709 25.8417 7.97709C26.4319 9.28421 26.4894 10.7699 26.0021 12.1188C27.097 13.2485 27.709 14.7601 27.7083 16.3333C27.7083 22.3708 23.9458 23.6979 20.4167 24.0917C20.8031 24.4669 21.1016 24.923 21.2907 25.4273C21.4798 25.9316 21.5549 26.4716 21.5104 27.0083V31.3104C21.5104 31.3104 21.8021 32.2292 22.6042 32.0688C25.7655 31.0543 28.5254 29.0669 30.4897 26.3902C32.4539 23.7135 33.5221 20.4846 33.5417 17.1646C33.4955 12.9551 31.7799 8.93615 28.7718 5.99102C25.7638 3.04589 21.7095 1.41556 17.5 1.45834Z" fill="#5C72FF"/>
</svg>
