<svg width="35" height="35" viewBox="0 0 35 35" fill="none" xmlns="http://www.w3.org/2000/svg">
<path fill-rule="evenodd" clip-rule="evenodd" d="M35 17.5C35 27.165 27.165 35 17.5 35C7.83502 35 0 27.165 0 17.5C0 7.83502 7.83502 0 17.5 0C27.165 0 35 7.83502 35 17.5ZM12.8103 8.81124C13.0444 8.92455 15.6462 10.1843 15.8594 12.7422C15.8594 12.9062 15.8047 13.125 15.6953 13.2344C14.7656 14.2188 14 15.4219 14.0547 15.75C14.1094 16.3516 16.0234 19.5781 19.4141 21.2188C19.9062 21.1094 21.0547 20.3438 21.9297 19.6328C22.0938 19.5234 22.3125 19.4688 22.4766 19.5234C24.9281 20.1238 25.9607 21.7312 26.1607 22.0424C26.1793 22.0714 26.1907 22.0891 26.1953 22.0938C26.25 22.2031 26.25 22.3672 26.25 22.4766C25.7996 25.0787 24.2046 26.0324 23.8948 26.2176C23.8661 26.2348 23.8484 26.2454 23.8438 26.25C23.7344 26.3047 23.6797 26.3047 23.5703 26.3047C23.543 26.3047 23.5156 26.291 23.4883 26.2773C23.4609 26.2637 23.4336 26.25 23.4062 26.25C23.2969 26.1953 23.1328 26.1406 22.9141 26.0859L22.8923 26.0799C20.2999 25.363 12.5128 23.2093 8.75 11.5391V11.2109C8.75366 11.2036 8.75902 11.1887 8.7668 11.1672C8.87538 10.8659 9.45418 9.26032 12.4141 8.75C12.5234 8.75 12.6328 8.75 12.7969 8.80469C12.7997 8.80608 12.8042 8.80827 12.8103 8.81124Z" fill="#5C72FF"/>
</svg>
